<svg width="63" height="36" viewBox="0 0 63 36" fill="none" xmlns="http://www.w3.org/2000/svg">
<g filter="url(#filter0_d_1_898)">
<rect x="1.41998" width="60" height="34" rx="2" fill="#9E22FF" shape-rendering="crispEdges"/>
<g clip-path="url(#clip0_1_898)">
<path fill-rule="evenodd" clip-rule="evenodd" d="M30.3147 21.7895C33.5703 21.7895 36.2095 19.1503 36.2095 15.8947C36.2095 12.6392 33.5703 10 30.3147 10C27.0591 10 24.42 12.6392 24.42 15.8947C24.42 19.1503 27.0591 21.7895 30.3147 21.7895ZM30.3147 20.3158C27.873 20.3158 25.8937 18.3364 25.8937 15.8947C25.8937 13.4531 27.873 11.4737 30.3147 11.4737C32.7564 11.4737 34.7358 13.4531 34.7358 15.8947C34.7358 18.3364 32.7564 20.3158 30.3147 20.3158Z" fill="white"/>
<path fill-rule="evenodd" clip-rule="evenodd" d="M33.4811 20.1031L37.1505 23.7279C37.4401 24.0139 37.9066 24.0111 38.1926 23.7216C38.4786 23.432 38.4757 22.9655 38.1862 22.6795L34.5168 19.0547C34.2272 18.7688 33.7607 18.7716 33.4747 19.0611C33.1887 19.3506 33.1916 19.8172 33.4811 20.1031Z" fill="white"/>
</g>
</g>
<defs>
<filter id="filter0_d_1_898" x="0.419983" y="0" width="62" height="36" filterUnits="userSpaceOnUse" color-interpolation-filters="sRGB">
<feFlood flood-opacity="0" result="BackgroundImageFix"/>
<feColorMatrix in="SourceAlpha" type="matrix" values="0 0 0 0 0 0 0 0 0 0 0 0 0 0 0 0 0 0 127 0" result="hardAlpha"/>
<feOffset dy="1"/>
<feGaussianBlur stdDeviation="0.5"/>
<feComposite in2="hardAlpha" operator="out"/>
<feColorMatrix type="matrix" values="0 0 0 0 0 0 0 0 0 0 0 0 0 0 0 0 0 0 0.09 0"/>
<feBlend mode="normal" in2="BackgroundImageFix" result="effect1_dropShadow_1_898"/>
<feBlend mode="normal" in="SourceGraphic" in2="effect1_dropShadow_1_898" result="shape"/>
</filter>
<clipPath id="clip0_1_898">
<rect width="14" height="14" fill="white" transform="translate(24.42 10)"/>
</clipPath>
</defs>
</svg>
