<svg width="27" height="26" viewBox="0 0 27 26" fill="none" xmlns="http://www.w3.org/2000/svg">
<path d="M2.37482 2.15039H5.79587L9.80339 18.376H21.1417L24.465 6.45114H7.26204" stroke="black" stroke-width="2.44361" stroke-miterlimit="10" stroke-linecap="round" stroke-linejoin="round"/>
<path d="M10.8786 25.1203C12.0662 25.1203 13.0289 24.1575 13.0289 22.9699C13.0289 21.7823 12.0662 20.8195 10.8786 20.8195C9.69094 20.8195 8.72818 21.7823 8.72818 22.9699C8.72818 24.1575 9.69094 25.1203 10.8786 25.1203Z" fill="black"/>
<path d="M19.6756 25.1203C20.8632 25.1203 21.8259 24.1575 21.8259 22.9699C21.8259 21.7823 20.8632 20.8195 19.6756 20.8195C18.4879 20.8195 17.5252 21.7823 17.5252 22.9699C17.5252 24.1575 18.4879 25.1203 19.6756 25.1203Z" fill="black"/>
</svg>
