<svg width="31" height="47" viewBox="0 0 31 47" fill="none" xmlns="http://www.w3.org/2000/svg">
<g clip-path="url(#clip0_22_300)">
<path d="M16.9663 13.8667H11.0996" stroke="black" stroke-width="1.33333" stroke-miterlimit="10" stroke-linejoin="round"/>
<path d="M9.49967 18.4C10.9724 18.4 12.1663 17.2061 12.1663 15.7333C12.1663 14.2606 10.9724 13.0667 9.49967 13.0667C8.02692 13.0667 6.83301 14.2606 6.83301 15.7333C6.83301 17.2061 8.02692 18.4 9.49967 18.4Z" stroke="black" stroke-width="1.33333" stroke-miterlimit="10"/>
<path d="M18.8332 18.4C20.3059 18.4 21.4998 17.2061 21.4998 15.7333C21.4998 14.2606 20.3059 13.0667 18.8332 13.0667C17.3604 13.0667 16.1665 14.2606 16.1665 15.7333C16.1665 17.2061 17.3604 18.4 18.8332 18.4Z" stroke="black" stroke-width="1.33333" stroke-miterlimit="10"/>
<path d="M19.5 10.5333H24.7" stroke="black" stroke-width="1.33333" stroke-miterlimit="10"/>
<path d="M7.49984 13.8667H6.1665V3.20001H18.8332V12.9333" stroke="black" stroke-width="1.33333" stroke-miterlimit="10" stroke-linejoin="round"/>
<path d="M18.6997 5.8667H24.1664L24.833 14.4H21.3664" stroke="black" stroke-width="1.33333" stroke-miterlimit="10" stroke-linejoin="round"/>
</g>
<defs>
<clipPath id="clip0_22_300">
<rect width="20" height="20" fill="white" transform="translate(5.5 0.799988)"/>
</clipPath>
</defs>
</svg>
