<svg width="451" height="450" viewBox="0 0 451 450" fill="none" xmlns="http://www.w3.org/2000/svg">
<rect width="450" height="450" transform="translate(0.5)" fill="#FAFAFA"/>
<path d="M234.17 239.45C233.84 242.2 232.17 244.41 229.59 245.51C228.15 246.13 226.22 246.46 224.69 246.35C222.31 246.26 220.07 245.68 218 244.62C217.27 244.24 216.17 243.49 215.32 242.78C215.11 242.6 215.08 242.49 215.23 242.28C215.3 242.17 215.44 241.96 215.75 241.51C216.21 240.84 216.26 240.76 216.31 240.68C216.46 240.46 216.69 240.44 216.92 240.62C216.95 240.64 216.95 240.64 216.97 240.66C217 240.69 217 240.69 217.09 240.76C217.18 240.83 217.24 240.87 217.26 240.89C219.49 242.63 222.08 243.63 224.7 243.74C228.34 243.69 230.96 242.05 231.43 239.53C231.94 236.77 229.77 234.38 225.52 233.04C224.19 232.63 220.83 231.28 220.21 230.92C217.3 229.21 215.94 226.97 216.14 224.21C216.43 220.38 219.99 217.53 224.48 217.51C226.48 217.51 228.49 217.92 230.41 218.73C231.1 219.02 232.31 219.68 232.73 220C232.97 220.18 233.02 220.38 232.88 220.61C232.81 220.74 232.68 220.94 232.41 221.37C232.05 221.94 232.04 221.96 231.96 222.09C231.82 222.3 231.65 222.32 231.4 222.16C229.34 220.78 227.05 220.08 224.54 220.03C221.41 220.09 219.07 221.95 218.92 224.49C218.88 226.78 220.59 228.45 224.3 229.72C231.83 232.14 234.71 234.98 234.17 239.45ZM224.87 199.93C229.77 199.93 233.77 204.58 233.96 210.4H215.79C215.97 204.58 219.97 199.93 224.87 199.93ZM250.24 211.5C250.24 210.89 249.76 210.4 249.16 210.4H249.14H237.38C237.09 202.71 231.6 196.58 224.87 196.58C218.14 196.58 212.66 202.71 212.37 210.4H200.57C199.98 210.41 199.51 210.9 199.51 211.5C199.51 211.53 199.51 211.55 199.51 211.58H199.5L201.18 248.64C201.18 248.75 201.19 248.85 201.19 248.96C201.19 248.98 201.2 249 201.2 249.03V249.1L201.21 249.11C201.46 251.69 203.33 253.76 205.88 253.86V253.87H243.3C243.31 253.87 243.33 253.87 243.35 253.87C243.37 253.87 243.38 253.87 243.4 253.87H243.48V253.86C246.07 253.79 248.17 251.69 248.39 249.08L248.4 249.04C248.4 249.01 248.4 248.99 248.4 248.96C248.4 248.89 248.41 248.83 248.41 248.76L250.24 211.55C250.24 211.54 250.24 211.52 250.24 211.5Z" fill="black" fill-opacity="0.05"/>
</svg>
