<svg width="81" height="27" viewBox="0 0 81 27" fill="none" xmlns="http://www.w3.org/2000/svg">
<g clip-path="url(#clip0_22_220)">
<path d="M7.68983 4.74664L9.74316 9.03998L14.2232 9.50664L10.6765 12.4933L11.7032 17.2533L7.68983 14.8266L3.67649 17.2533L4.70316 12.4933L1.15649 9.50664L5.63649 9.03998L7.68983 4.74664Z" stroke="#EE4D2D" stroke-width="0.933333" stroke-miterlimit="10" stroke-linecap="round" stroke-linejoin="round"/>
</g>
<g clip-path="url(#clip1_22_220)">
<g clip-path="url(#clip2_22_220)">
<path d="M7.68983 4.74664L9.74316 9.03998L14.2232 9.50664L10.6765 12.4933L11.7032 17.2533L7.68983 14.8266L3.67649 17.2533L4.70316 12.4933L1.15649 9.50664L5.63649 9.03998L7.68983 4.74664Z" fill="#EE4D2D" stroke="#EE4D2D" stroke-width="0.933333" stroke-miterlimit="10" stroke-linecap="round" stroke-linejoin="round"/>
</g>
</g>
<g clip-path="url(#clip3_22_220)">
<path d="M22.6898 4.74664L24.7432 9.03998L29.2232 9.50664L25.6765 12.4933L26.7032 17.2533L22.6898 14.8266L18.6765 17.2533L19.7032 12.4933L16.1565 9.50664L20.6365 9.03998L22.6898 4.74664Z" stroke="#EE4D2D" stroke-width="0.933333" stroke-miterlimit="10" stroke-linecap="round" stroke-linejoin="round"/>
</g>
<g clip-path="url(#clip4_22_220)">
<g clip-path="url(#clip5_22_220)">
<path d="M22.6898 4.74664L24.7432 9.03998L29.2232 9.50664L25.6765 12.4933L26.7032 17.2533L22.6898 14.8266L18.6765 17.2533L19.7032 12.4933L16.1565 9.50664L20.6365 9.03998L22.6898 4.74664Z" fill="#EE4D2D" stroke="#EE4D2D" stroke-width="0.933333" stroke-miterlimit="10" stroke-linecap="round" stroke-linejoin="round"/>
</g>
</g>
<g clip-path="url(#clip6_22_220)">
<path d="M37.6898 4.74664L39.7432 9.03998L44.2232 9.50664L40.6765 12.4933L41.7032 17.2533L37.6898 14.8266L33.6765 17.2533L34.7032 12.4933L31.1565 9.50664L35.6365 9.03998L37.6898 4.74664Z" stroke="#EE4D2D" stroke-width="0.933333" stroke-miterlimit="10" stroke-linecap="round" stroke-linejoin="round"/>
</g>
<g clip-path="url(#clip7_22_220)">
<g clip-path="url(#clip8_22_220)">
<path d="M37.6898 4.74664L39.7432 9.03998L44.2232 9.50664L40.6765 12.4933L41.7032 17.2533L37.6898 14.8266L33.6765 17.2533L34.7032 12.4933L31.1565 9.50664L35.6365 9.03998L37.6898 4.74664Z" fill="#EE4D2D" stroke="#EE4D2D" stroke-width="0.933333" stroke-miterlimit="10" stroke-linecap="round" stroke-linejoin="round"/>
</g>
</g>
<g clip-path="url(#clip9_22_220)">
<path d="M52.6898 4.74664L54.7432 9.03998L59.2232 9.50664L55.6765 12.4933L56.7032 17.2533L52.6898 14.8266L48.6765 17.2533L49.7032 12.4933L46.1565 9.50664L50.6365 9.03998L52.6898 4.74664Z" stroke="#EE4D2D" stroke-width="0.933333" stroke-miterlimit="10" stroke-linecap="round" stroke-linejoin="round"/>
</g>
<g clip-path="url(#clip10_22_220)">
<g clip-path="url(#clip11_22_220)">
<path d="M52.6898 4.74664L54.7432 9.03998L59.2232 9.50664L55.6765 12.4933L56.7032 17.2533L52.6898 14.8266L48.6765 17.2533L49.7032 12.4933L46.1565 9.50664L50.6365 9.03998L52.6898 4.74664Z" fill="#EE4D2D" stroke="#EE4D2D" stroke-width="0.933333" stroke-miterlimit="10" stroke-linecap="round" stroke-linejoin="round"/>
</g>
</g>
<g clip-path="url(#clip12_22_220)">
<path d="M67.6898 4.74664L69.7432 9.03998L74.2232 9.50664L70.6765 12.4933L71.7032 17.2533L67.6898 14.8266L63.6765 17.2533L64.7032 12.4933L61.1565 9.50664L65.6365 9.03998L67.6898 4.74664Z" stroke="#EE4D2D" stroke-width="0.933333" stroke-miterlimit="10" stroke-linecap="round" stroke-linejoin="round"/>
</g>
<g clip-path="url(#clip13_22_220)">
<g clip-path="url(#clip14_22_220)">
<path d="M67.6898 4.74664L69.7432 9.03998L74.2232 9.50664L70.6765 12.4933L71.7032 17.2533L67.6898 14.8266L63.6765 17.2533L64.7032 12.4933L61.1565 9.50664L65.6365 9.03998L67.6898 4.74664Z" fill="#EE4D2D" stroke="#EE4D2D" stroke-width="0.933333" stroke-miterlimit="10" stroke-linecap="round" stroke-linejoin="round"/>
</g>
</g>
<defs>
<clipPath id="clip0_22_220">
<rect width="14" height="14" fill="white" transform="translate(0.689941 4)"/>
</clipPath>
<clipPath id="clip1_22_220">
<rect width="14" height="14" fill="white" transform="translate(0.689941 4)"/>
</clipPath>
<clipPath id="clip2_22_220">
<rect width="14" height="14" fill="white" transform="translate(0.689941 4)"/>
</clipPath>
<clipPath id="clip3_22_220">
<rect width="14" height="14" fill="white" transform="translate(15.6899 4)"/>
</clipPath>
<clipPath id="clip4_22_220">
<rect width="14" height="14" fill="white" transform="translate(15.6899 4)"/>
</clipPath>
<clipPath id="clip5_22_220">
<rect width="14" height="14" fill="white" transform="translate(15.6899 4)"/>
</clipPath>
<clipPath id="clip6_22_220">
<rect width="14" height="14" fill="white" transform="translate(30.6899 4)"/>
</clipPath>
<clipPath id="clip7_22_220">
<rect width="14" height="14" fill="white" transform="translate(30.6899 4)"/>
</clipPath>
<clipPath id="clip8_22_220">
<rect width="14" height="14" fill="white" transform="translate(30.6899 4)"/>
</clipPath>
<clipPath id="clip9_22_220">
<rect width="14" height="14" fill="white" transform="translate(45.6899 4)"/>
</clipPath>
<clipPath id="clip10_22_220">
<rect width="14" height="14" fill="white" transform="translate(45.6899 4)"/>
</clipPath>
<clipPath id="clip11_22_220">
<rect width="14" height="14" fill="white" transform="translate(45.6899 4)"/>
</clipPath>
<clipPath id="clip12_22_220">
<rect width="14" height="14" fill="white" transform="translate(60.6899 4)"/>
</clipPath>
<clipPath id="clip13_22_220">
<rect width="9.8" height="14" fill="white" transform="translate(60.6899 4)"/>
</clipPath>
<clipPath id="clip14_22_220">
<rect width="14" height="14" fill="white" transform="translate(60.6899 4)"/>
</clipPath>
</defs>
</svg>
