<svg width="81" height="80" viewBox="0 0 81 80" fill="none" xmlns="http://www.w3.org/2000/svg">
<g clip-path="url(#clip0_22_153)">
<g opacity="0.54">
<path d="M40.5 78.9333C62.0023 78.9333 79.4333 61.5023 79.4333 40C79.4333 18.4977 62.0023 1.06665 40.5 1.06665C18.9977 1.06665 1.56665 18.4977 1.56665 40C1.56665 61.5023 18.9977 78.9333 40.5 78.9333Z" fill="#040000"/>
<path d="M40.5 2.66667C61.3 2.66667 77.8333 19.2 77.8333 40C77.8333 60.8 61.3 77.3333 40.5 77.3333C19.7 77.3333 3.16667 60.8 3.16667 40C3.16667 19.2 19.7 2.66667 40.5 2.66667ZM40.5 0C18.6333 0 0.5 18.1333 0.5 40C0.5 61.8667 18.6333 80 40.5 80C62.3667 80 80.5 61.8667 80.5 40C80.5 18.1333 62.3667 0 40.5 0Z" fill="white"/>
</g>
<path fill-rule="evenodd" clip-rule="evenodd" d="M54.8999 28.2666C57.5666 32 59.1666 35.7333 59.1666 40C59.1666 50.1333 50.6333 58.6666 40.4999 58.6666C30.3666 58.6666 21.8333 50.1333 21.8333 40C21.8333 29.8666 30.3666 21.3333 40.4999 21.3333V24C31.9666 24 24.4999 30.9333 24.4999 40C24.4999 49.0666 31.4333 56 40.4999 56C49.5666 56 56.4999 49.0666 56.4999 40C56.4999 36.2666 55.4333 33.0666 53.2999 30.4C52.7666 29.8666 52.7666 29.8666 52.7666 29.8666C52.2333 29.3333 52.2333 28.2666 52.7666 27.7333C53.2999 27.2 54.3666 27.2 54.8999 28.2666Z" fill="white"/>
<path fill-rule="evenodd" clip-rule="evenodd" d="M40.5 15.4667C40.5 14.9334 41.0333 14.9333 41.0333 14.9333L48.5 22.9334L41.0333 30.4C41.0333 30.9333 40.5 30.9333 40.5 30.4V15.4667Z" fill="white"/>
</g>
<defs>
<clipPath id="clip0_22_153">
<rect width="80" height="80" fill="white" transform="translate(0.5)"/>
</clipPath>
</defs>
</svg>
