<svg width="33" height="32" viewBox="0 0 33 32" fill="none" xmlns="http://www.w3.org/2000/svg">
<g clip-path="url(#clip0_22_167)">
<g opacity="0.54">
<path d="M16.5001 31.5733C25.101 31.5733 32.0734 24.6009 32.0734 16C32.0734 7.39906 25.101 0.426636 16.5001 0.426636C7.89918 0.426636 0.926758 7.39906 0.926758 16C0.926758 24.6009 7.89918 31.5733 16.5001 31.5733Z" fill="#040000"/>
<path d="M16.5 1.06667C24.82 1.06667 31.4333 7.68 31.4333 16C31.4333 24.32 24.82 30.9333 16.5 30.9333C8.18 30.9333 1.56667 24.32 1.56667 16C1.56667 7.68 8.18 1.06667 16.5 1.06667ZM16.5 0C7.75333 0 0.5 7.25333 0.5 16C0.5 24.7467 7.75333 32 16.5 32C25.2467 32 32.5 24.7467 32.5 16C32.5 7.25333 25.2467 0 16.5 0Z" fill="white"/>
</g>
<path d="M13.5134 10.88C13.5134 10.4533 13.7268 10.24 14.1534 10.4533L21.1934 15.36C21.6201 15.5733 21.6201 16 21.1934 16.2133L14.1534 21.3333C13.7268 21.5467 13.5134 21.5467 13.5134 20.9067V10.88Z" fill="white"/>
</g>
<defs>
<clipPath id="clip0_22_167">
<rect width="32" height="32" fill="white" transform="translate(0.5)"/>
</clipPath>
</defs>
</svg>
