<svg width="24" height="24" viewBox="0 0 24 24" fill="none" xmlns="http://www.w3.org/2000/svg">
<path d="M18 7.00548C17.4777 7.37393 16.8993 7.65573 16.2873 7.84003C15.9588 7.46231 15.5222 7.19459 15.0366 7.07308C14.5509 6.95157 14.0397 6.98214 13.572 7.16064C13.1044 7.33915 12.7028 7.65698 12.4216 8.07115C12.1405 8.48532 11.9933 8.97585 12 9.47639V10.0218C11.0414 10.0467 10.0916 9.83411 9.2351 9.403C8.37859 8.97189 7.64199 8.33565 7.09091 7.55094C7.09091 7.55094 4.90909 12.46 9.81818 14.6418C8.69483 15.4044 7.35663 15.7867 6 15.7328C10.9091 18.46 16.9091 15.7328 16.9091 9.46003C16.9086 9.3081 16.894 9.15654 16.8655 9.0073C17.4221 8.4583 17.815 7.76515 18 7.00548Z" fill="#545454"/>
</svg>
